<mxfile host="Electron" modified="2023-05-01T02:47:48.594Z" agent="Mozilla/5.0 (X11; Linux x86_64) AppleWebKit/537.36 (KHTML, like Gecko) draw.io/21.1.2 Chrome/106.0.5249.199 Electron/21.4.3 Safari/537.36" etag="cM2dsBDeR4vu6zPl3XIh" version="21.1.2" type="device">
  <diagram name="Page-1" id="whSddxXxI1sJNtOlfYX1">
    <mxGraphModel dx="1760" dy="1062" grid="1" gridSize="10" guides="1" tooltips="1" connect="1" arrows="1" fold="1" page="1" pageScale="1" pageWidth="850" pageHeight="1100" math="0" shadow="0">
      <root>
        <mxCell id="0" />
        <mxCell id="1" parent="0" />
        <mxCell id="8eM-jXf3ZOLbcgqs33Qz-1" value="" style="ellipse;html=1;shape=startState;fillColor=#000000;strokeColor=#ff0000;" parent="1" vertex="1">
          <mxGeometry x="120" y="210" width="30" height="30" as="geometry" />
        </mxCell>
        <mxCell id="8eM-jXf3ZOLbcgqs33Qz-2" value="[created card]" style="endArrow=classic;html=1;rounded=0;exitX=1;exitY=0.5;exitDx=0;exitDy=0;" parent="1" source="8eM-jXf3ZOLbcgqs33Qz-1" edge="1">
          <mxGeometry width="50" height="50" relative="1" as="geometry">
            <mxPoint x="230" y="225" as="sourcePoint" />
            <mxPoint x="290" y="224.5" as="targetPoint" />
          </mxGeometry>
        </mxCell>
        <mxCell id="8eM-jXf3ZOLbcgqs33Qz-7" value="[client request block]" style="edgeStyle=orthogonalEdgeStyle;rounded=0;orthogonalLoop=1;jettySize=auto;html=1;entryX=0;entryY=0.5;entryDx=0;entryDy=0;" parent="1" source="8eM-jXf3ZOLbcgqs33Qz-3" target="8eM-jXf3ZOLbcgqs33Qz-6" edge="1">
          <mxGeometry relative="1" as="geometry" />
        </mxCell>
        <mxCell id="8eM-jXf3ZOLbcgqs33Qz-9" value="[suspended by fraud detection]" style="edgeStyle=orthogonalEdgeStyle;rounded=0;orthogonalLoop=1;jettySize=auto;html=1;entryX=0.75;entryY=1;entryDx=0;entryDy=0;" parent="1" source="8eM-jXf3ZOLbcgqs33Qz-3" target="8eM-jXf3ZOLbcgqs33Qz-8" edge="1">
          <mxGeometry x="0.3684" relative="1" as="geometry">
            <Array as="points">
              <mxPoint x="380" y="170" />
              <mxPoint x="380" y="170" />
            </Array>
            <mxPoint as="offset" />
          </mxGeometry>
        </mxCell>
        <mxCell id="8eM-jXf3ZOLbcgqs33Qz-11" value="" style="edgeStyle=orthogonalEdgeStyle;rounded=0;orthogonalLoop=1;jettySize=auto;html=1;exitX=0.5;exitY=1;exitDx=0;exitDy=0;" parent="1" source="8eM-jXf3ZOLbcgqs33Qz-6" target="8eM-jXf3ZOLbcgqs33Qz-5" edge="1">
          <mxGeometry x="-0.0462" y="-10" relative="1" as="geometry">
            <mxPoint x="350" y="360" as="targetPoint" />
            <Array as="points">
              <mxPoint x="630" y="320" />
              <mxPoint x="380" y="320" />
            </Array>
            <mxPoint as="offset" />
          </mxGeometry>
        </mxCell>
        <mxCell id="8eM-jXf3ZOLbcgqs33Qz-14" style="edgeStyle=orthogonalEdgeStyle;rounded=0;orthogonalLoop=1;jettySize=auto;html=1;" parent="1" source="8eM-jXf3ZOLbcgqs33Qz-3" target="8eM-jXf3ZOLbcgqs33Qz-5" edge="1">
          <mxGeometry relative="1" as="geometry">
            <Array as="points">
              <mxPoint x="350" y="300" />
              <mxPoint x="350" y="300" />
            </Array>
          </mxGeometry>
        </mxCell>
        <mxCell id="8eM-jXf3ZOLbcgqs33Qz-3" value="enabled" style="rounded=1;whiteSpace=wrap;html=1;" parent="1" vertex="1">
          <mxGeometry x="290" y="195" width="120" height="60" as="geometry" />
        </mxCell>
        <mxCell id="8eM-jXf3ZOLbcgqs33Qz-5" value="" style="line;strokeWidth=2;html=1;" parent="1" vertex="1">
          <mxGeometry x="280" y="360" width="150" height="10" as="geometry" />
        </mxCell>
        <mxCell id="8eM-jXf3ZOLbcgqs33Qz-6" value="blocked" style="rounded=1;whiteSpace=wrap;html=1;" parent="1" vertex="1">
          <mxGeometry x="570" y="195" width="120" height="60" as="geometry" />
        </mxCell>
        <mxCell id="8eM-jXf3ZOLbcgqs33Qz-8" value="suspended&lt;br&gt;by fraud detection" style="rounded=1;whiteSpace=wrap;html=1;" parent="1" vertex="1">
          <mxGeometry x="290" y="40" width="120" height="60" as="geometry" />
        </mxCell>
        <mxCell id="8eM-jXf3ZOLbcgqs33Qz-13" style="edgeStyle=orthogonalEdgeStyle;rounded=0;orthogonalLoop=1;jettySize=auto;html=1;entryX=0.5;entryY=0;entryDx=0;entryDy=0;" parent="1" source="8eM-jXf3ZOLbcgqs33Qz-10" target="8eM-jXf3ZOLbcgqs33Qz-12" edge="1">
          <mxGeometry relative="1" as="geometry" />
        </mxCell>
        <mxCell id="8eM-jXf3ZOLbcgqs33Qz-10" value="deleted&amp;nbsp;&lt;br&gt;by client" style="rounded=1;whiteSpace=wrap;html=1;" parent="1" vertex="1">
          <mxGeometry x="290" y="460" width="120" height="60" as="geometry" />
        </mxCell>
        <mxCell id="8eM-jXf3ZOLbcgqs33Qz-12" value="" style="ellipse;html=1;shape=endState;fillColor=#000000;strokeColor=#ff0000;" parent="1" vertex="1">
          <mxGeometry x="335" y="540" width="30" height="30" as="geometry" />
        </mxCell>
        <mxCell id="8eM-jXf3ZOLbcgqs33Qz-17" value="[issue solved]" style="endArrow=classic;html=1;rounded=0;entryX=0.25;entryY=0;entryDx=0;entryDy=0;exitX=0.25;exitY=1;exitDx=0;exitDy=0;" parent="1" source="8eM-jXf3ZOLbcgqs33Qz-8" target="8eM-jXf3ZOLbcgqs33Qz-3" edge="1">
          <mxGeometry x="0.4737" width="50" height="50" relative="1" as="geometry">
            <mxPoint x="480" y="300" as="sourcePoint" />
            <mxPoint x="530" y="250" as="targetPoint" />
            <mxPoint as="offset" />
          </mxGeometry>
        </mxCell>
        <mxCell id="8eM-jXf3ZOLbcgqs33Qz-18" value="[deleted by client]" style="endArrow=classic;html=1;rounded=0;entryX=0.5;entryY=0;entryDx=0;entryDy=0;exitX=0.467;exitY=0.7;exitDx=0;exitDy=0;exitPerimeter=0;" parent="1" source="8eM-jXf3ZOLbcgqs33Qz-5" target="8eM-jXf3ZOLbcgqs33Qz-10" edge="1">
          <mxGeometry width="50" height="50" relative="1" as="geometry">
            <mxPoint x="350" y="390" as="sourcePoint" />
            <mxPoint x="490" y="390" as="targetPoint" />
          </mxGeometry>
        </mxCell>
        <mxCell id="k7dDBA0qBWHTT05wClp8-1" value="" style="swimlane;startSize=0;" vertex="1" parent="1">
          <mxGeometry x="30" width="740" height="590" as="geometry" />
        </mxCell>
      </root>
    </mxGraphModel>
  </diagram>
</mxfile>
